<svg xmlns="http://www.w3.org/2000/svg" viewBox="0 0 220 48" width="220" height="48" role="img" aria-label="Sprinter Yazılım">
  <defs>
    <linearGradient id="sg" x1="0" y1="0" x2="1" y2="1">
      <stop offset="0%" stop-color="#0f172a"/>
      <stop offset="55%" stop-color="#1e40af"/>
      <stop offset="100%" stop-color="#3b82f6"/>
    </linearGradient>
  </defs>
  <rect x="2" y="6" width="36" height="36" rx="10" fill="url(#sg)"/>
  <path d="M24.5 16.5c-2.6 0-4.6 1.5-4.6 3.8 0 1.9 1.3 2.9 3.8 3.5l1.6.4c1.2.3 1.7.7 1.7 1.4 0 .8-.8 1.4-2.2 1.4-1.5 0-2.5-.6-2.8-1.7l-2.9.7c.5 2.2 2.4 3.5 5.6 3.5 3 0 5.1-1.5 5.1-3.9 0-1.9-1.2-2.9-3.8-3.5l-1.6-.4c-1.3-.3-1.8-.7-1.8-1.4 0-.8.8-1.3 2-1.3 1.3 0 2.1.5 2.5 1.5l2.7-.8c-.6-2-2.3-3.2-5.3-3.2z" fill="#fff"/>
  <circle cx="31" cy="13" r="2.2" fill="#06b6d4"/>
  <text x="50" y="31" font-family="Inter, -apple-system, Segoe UI, Roboto, sans-serif" font-size="20" font-weight="800" fill="#0a2540" letter-spacing="-0.5">Sprinter</text>
  <text x="50" y="42" font-family="Inter, -apple-system, Segoe UI, Roboto, sans-serif" font-size="8.5" font-weight="600" fill="#64748b" letter-spacing="3">YAZILIM</text>
</svg>
